<?xml version="1.0" standalone="no"?>
<!DOCTYPE svg PUBLIC "-//W3C//DTD SVG 20010904//EN"
 "http://www.w3.org/TR/2001/REC-SVG-20010904/DTD/svg10.dtd">
<svg version="1.0" xmlns="http://www.w3.org/2000/svg"
 width="360.000000pt" height="360.000000pt" viewBox="0 0 360.000000 360.000000"
 preserveAspectRatio="xMidYMid meet">
<metadata>
Created by potrace 1.11, written by Peter Selinger 2001-2013
</metadata>
<g transform="translate(0.000000,360.000000) scale(0.100000,-0.100000)"
fill="#000000" stroke="none">
<path d="M1620 3590 c-533 -56 -1016 -347 -1312 -790 -224 -335 -326 -724
-297 -1131 46 -647 435 -1216 1021 -1493 668 -316 1463 -192 1999 312 282 265
469 608 541 987 32 173 32 477 0 650 -140 743 -720 1317 -1462 1446 -132 23
-366 32 -490 19z m-96 -1082 c68 -130 174 -404 161 -416 -7 -8 -7 -8 -86 137
-90 167 -183 421 -154 421 2 0 38 -64 79 -142z m636 124 c0 -5 -20 -69 -44
-143 -43 -130 -185 -426 -193 -402 -2 6 12 65 32 130 49 158 205 475 205 415z
m-331 -325 c16 -126 -7 -331 -33 -289 -14 22 -23 183 -16 262 5 47 9 93 9 103
1 9 7 17 15 17 10 0 17 -26 25 -93z m-380 -118 c65 -54 195 -198 187 -207 -9
-8 -170 135 -227 202 -57 68 -78 105 -41 75 9 -9 46 -40 81 -70z m747 2 c-49
-60 -154 -161 -220 -211 -18 -13 -19 -13 -11 0 44 75 267 301 282 286 3 -3
-20 -37 -51 -75z m449 -51 c-12 -19 -256 -129 -354 -159 -55 -17 -107 -34
-116 -37 -8 -3 -15 -1 -15 5 0 18 175 101 320 152 135 48 177 58 165 39z
m-1549 -36 c117 -35 354 -139 354 -156 0 -11 3 -12 -128 27 -111 34 -357 138
-368 157 -9 15 21 9 142 -28z m395 -285 c77 -10 110 -21 98 -33 -13 -13 -221
-24 -293 -16 -78 9 -114 24 -85 35 12 4 123 19 180 24 9 0 54 -4 100 -10z
m872 -8 c47 -7 49 -23 5 -34 -84 -19 -353 -7 -345 17 9 28 211 39 340 17z
m-873 -150 c0 -10 -178 -111 -240 -136 -96 -37 -274 -95 -279 -89 -18 17 215
134 379 190 139 47 140 48 140 35z m785 -38 c127 -39 365 -150 365 -170 0 -7
-1 -13 -3 -13 -2 0 -70 22 -153 49 -145 47 -364 151 -364 173 0 5 10 6 23 3
12 -4 72 -23 132 -42z m-700 -63 c-32 -39 -88 -97 -124 -128 -36 -31 -76 -65
-88 -76 -41 -35 -24 1 30 64 52 62 228 222 236 215 2 -3 -22 -36 -54 -75z
m502 -3 c88 -73 210 -203 201 -213 -9 -8 -180 140 -234 202 -92 108 -86 110
33 11z m-248 -70 c16 -126 -7 -331 -33 -289 -14 22 -23 183 -16 262 5 47 9 93
9 103 1 9 7 17 15 17 10 0 17 -26 25 -93z m-169 -127 c-43 -140 -160 -400
-180 -400 -6 0 -9 8 -6 18 50 174 91 283 149 406 43 89 73 142 75 130 2 -11
-16 -80 -38 -154z m343 3 c60 -126 147 -358 147 -396 0 -60 -132 208 -189 383
-73 225 -63 228 42 13z"/>
</g>
</svg>
